<?xml version="1.0" standalone="no"?>
<!DOCTYPE svg PUBLIC "-//W3C//DTD SVG 20010904//EN"
 "http://www.w3.org/TR/2001/REC-SVG-20010904/DTD/svg10.dtd">
<svg version="1.0" xmlns="http://www.w3.org/2000/svg"
 width="1080.000000pt" height="1080.000000pt" viewBox="0 0 1080.000000 1080.000000"
 preserveAspectRatio="xMidYMid meet">

<g transform="translate(0.000000,1080.000000) scale(0.100000,-0.100000)"
fill="#000000" stroke="none">
<path d="M5434 9024 c-74 -38 -107 -95 -108 -188 -1 -106 36 -160 135 -196 84
-31 193 -22 243 19 22 18 20 34 -7 59 -27 26 -40 27 -57 7 -8 -10 -31 -15 -71
-15 -52 0 -61 3 -93 34 -65 61 -57 65 127 68 l162 3 -3 43 c-5 84 -64 161
-140 182 -66 18 -133 12 -188 -16z m161 -69 c31 -12 55 -46 55 -76 0 -5 -47
-9 -105 -9 -97 0 -105 1 -105 19 0 25 68 81 98 81 12 0 38 -7 57 -15z"/>
<path d="M4975 9024 c-16 -8 -38 -23 -48 -31 -16 -15 -18 -15 -30 1 -10 13
-24 17 -57 14 l-45 -3 2 -75 c1 -41 9 -131 18 -200 8 -69 18 -161 22 -205 l8
-80 55 0 55 0 -3 94 c-3 88 -2 93 15 85 38 -17 149 -16 184 2 93 47 132 136
109 247 -13 63 -55 119 -111 147 -47 24 -132 26 -174 4z m133 -112 c56 -52 49
-157 -12 -198 -38 -24 -110 -14 -144 19 -21 22 -25 35 -26 87 -1 59 1 64 34
91 47 40 106 40 148 1z"/>
<path d="M5876 8989 c-3 -19 -7 -50 -10 -69 -3 -19 -12 -75 -20 -125 -8 -49
-18 -111 -22 -136 l-6 -47 36 -12 c19 -6 46 -10 58 -8 20 3 24 11 29 58 8 73
29 171 40 192 14 25 62 48 102 48 39 0 47 12 47 67 l0 36 -52 -7 c-28 -4 -60
-12 -70 -17 -13 -7 -18 -6 -18 4 0 22 -22 35 -67 43 -41 6 -42 6 -47 -27z"/>
<path d="M4016 8965 c-53 -19 -62 -29 -49 -57 11 -24 38 -96 68 -183 10 -27
23 -63 30 -80 13 -31 41 -108 69 -187 20 -54 31 -60 80 -47 35 10 41 19 37 61
-2 16 -141 399 -161 443 -5 11 -12 30 -15 43 -7 26 -8 26 -59 7z"/>
<path d="M4424 8925 c-10 -8 -26 -15 -34 -15 -22 0 -94 -78 -109 -117 -24 -61
-11 -147 33 -206 60 -82 194 -105 296 -50 93 49 132 129 116 238 -9 54 -58
115 -117 146 -47 24 -155 26 -185 4z m148 -113 c15 -15 33 -48 40 -74 12 -46
11 -48 -18 -85 -77 -95 -204 -46 -204 77 0 103 111 153 182 82z"/>
<path d="M6936 8883 c-2 -10 -8 -40 -11 -68 -4 -27 -11 -68 -17 -90 -6 -22
-16 -78 -24 -125 -7 -47 -20 -122 -28 -168 -8 -46 -13 -89 -9 -97 7 -20 102
-67 116 -58 7 3 46 39 87 79 147 143 190 177 190 152 -1 -28 -28 -194 -34
-208 -3 -8 -10 -46 -14 -84 l-9 -69 46 -28 c25 -16 52 -29 61 -29 20 0 410
366 410 385 0 15 -67 57 -85 53 -7 -2 -72 -60 -143 -129 -72 -69 -137 -129
-146 -132 -16 -7 -16 -1 5 108 17 81 41 217 46 255 5 35 3 37 -46 59 l-50 24
-117 -109 c-161 -151 -184 -169 -184 -149 0 18 32 182 55 286 21 92 20 96 -26
124 -57 37 -66 39 -73 18z"/>
<path d="M3742 8676 c-92 -30 -162 -121 -162 -211 1 -79 74 -181 147 -206 89
-29 232 20 287 98 32 47 28 65 -21 78 -20 5 -32 -1 -61 -30 -20 -19 -52 -40
-73 -46 -42 -13 -101 -5 -119 16 -13 15 5 31 70 60 19 8 42 19 50 24 8 5 45
23 83 40 39 18 67 37 67 46 0 28 -50 91 -90 114 -50 28 -123 35 -178 17z m103
-90 c55 -23 44 -42 -47 -86 -95 -46 -104 -47 -113 -20 -9 29 24 82 65 102 42
22 51 22 95 4z"/>
<path d="M6372 8623 c-20 -8 -44 -63 -38 -88 15 -59 88 -76 125 -29 34 43 26
86 -20 109 -29 15 -44 17 -67 8z"/>
<path d="M3418 8504 c-32 -20 -38 -30 -38 -59 0 -20 7 -52 15 -72 8 -19 15
-54 15 -77 1 -22 5 -60 9 -84 8 -40 7 -42 -13 -36 -11 4 -48 26 -81 50 -33 24
-79 57 -102 74 -23 16 -46 30 -51 30 -16 0 -102 -51 -102 -61 0 -4 12 -15 28
-23 15 -8 94 -59 177 -115 89 -61 159 -101 174 -101 14 0 40 10 58 23 29 19
33 27 33 68 0 26 -7 66 -15 89 -8 23 -15 54 -15 69 0 35 -43 251 -50 250 -3 0
-22 -11 -42 -25z"/>
<path d="M7673 8203 c-54 -18 -130 -101 -139 -149 -12 -64 1 -129 33 -173 43
-59 110 -108 163 -120 57 -13 76 1 66 52 -6 30 -11 35 -44 41 -42 7 -83 39
-106 84 -18 35 -21 78 -6 87 10 6 70 -37 191 -138 36 -31 70 -52 75 -49 50 35
79 153 54 226 -17 53 -90 120 -150 140 -59 19 -82 19 -137 -1z m168 -119 c23
-22 29 -36 29 -70 0 -71 -4 -70 -153 49 l-28 22 23 19 c32 25 91 16 129 -20z"/>
<path d="M2931 8142 c-65 -25 -124 -89 -145 -156 -17 -53 -17 -59 0 -113 24
-80 80 -134 157 -153 44 -10 63 -11 82 -2 14 7 34 12 45 12 28 0 116 75 144
123 15 24 26 56 26 70 0 25 -3 27 -42 27 -40 0 -44 -3 -61 -41 -33 -69 -128
-112 -177 -79 -12 9 -2 22 55 73 38 34 92 82 119 107 l48 46 -27 32 c-31 37
-104 72 -149 71 -17 0 -51 -8 -75 -17z m100 -92 l24 -20 -70 -65 c-38 -35 -76
-65 -83 -65 -7 0 -17 11 -22 25 -17 45 32 125 85 138 36 9 42 7 66 -13z"/>
<path d="M8079 7883 c-94 -87 -190 -175 -213 -195 l-41 -38 38 -35 c27 -26 43
-34 57 -30 16 5 20 2 20 -15 0 -33 35 -94 74 -127 73 -65 162 -69 250 -10 62
41 106 116 106 179 0 81 -62 170 -132 189 -21 5 -38 15 -38 22 0 7 29 37 64
67 36 30 65 62 65 71 1 14 -57 79 -71 79 -4 0 -84 -71 -179 -157z m142 -172
c24 -24 29 -38 29 -76 0 -42 -5 -52 -39 -86 -33 -33 -45 -39 -81 -39 -34 0
-48 6 -76 34 -28 28 -34 42 -34 76 0 36 6 48 39 81 34 34 44 39 86 39 38 0 52
-5 76 -29z"/>
<path d="M2462 7837 c-52 -22 -132 -91 -181 -157 -14 -19 -45 -57 -69 -85
l-44 -49 34 -31 c19 -16 83 -70 143 -120 59 -49 139 -117 178 -149 l70 -60 19
25 c11 13 41 49 67 79 62 72 120 154 138 199 9 20 16 65 16 101 0 190 -195
321 -371 247z m188 -137 c41 -32 80 -101 80 -139 0 -10 -8 -33 -17 -52 -17
-36 -97 -144 -113 -154 -5 -3 -41 20 -79 52 -37 32 -96 81 -129 108 -34 28
-61 54 -61 59 -2 17 108 133 141 150 53 27 126 17 178 -24z"/>
<path d="M8720 7334 c-48 -26 -61 -33 -238 -135 -62 -35 -129 -72 -148 -82
-39 -20 -41 -30 -16 -72 17 -28 37 -63 92 -160 26 -48 71 -97 124 -136 36 -27
45 -29 133 -29 104 0 129 9 194 67 55 50 79 109 79 198 0 67 -3 78 -54 176
-76 147 -100 188 -111 193 -6 2 -31 -7 -55 -20z m38 -146 c31 -41 82 -153 82
-184 0 -51 -34 -110 -82 -141 -56 -38 -147 -40 -196 -4 -34 24 -74 80 -103
141 l-16 35 31 19 c17 11 56 33 86 49 30 17 80 45 110 63 61 37 73 40 88 22z"/>
<path d="M2107 7080 c-85 -16 -167 -126 -167 -225 0 -133 122 -233 257 -209
101 17 193 137 193 252 0 51 -1 52 -29 52 -49 0 -61 -9 -61 -47 0 -73 -63
-153 -121 -153 -17 0 -29 5 -29 13 0 12 115 243 131 263 25 30 -99 69 -174 54z
m53 -100 c13 -8 8 -23 -30 -99 -25 -50 -51 -91 -57 -91 -16 0 -43 52 -43 83 0
31 39 88 70 104 30 15 40 16 60 3z"/>
<path d="M1829 6668 c-7 -12 -9 -41 -6 -70 5 -42 4 -48 -12 -48 -22 0 -35 -14
-49 -58 -10 -29 -9 -34 11 -47 13 -8 38 -20 57 -26 19 -6 44 -15 55 -20 42
-19 238 -89 250 -89 7 0 20 21 30 47 17 45 17 47 -1 60 -10 7 -37 18 -59 24
-22 6 -44 14 -50 19 -5 4 -26 13 -47 19 -20 7 -48 23 -62 36 -23 21 -26 32
-26 89 0 63 -1 66 -27 72 -16 3 -34 7 -40 9 -7 3 -18 -5 -24 -17z"/>
<path d="M8777 6657 c-61 -24 -113 -65 -128 -104 -16 -43 -10 -174 10 -218 17
-38 86 -115 102 -115 4 0 17 16 29 36 l23 36 -39 39 c-37 38 -39 43 -39 105 0
53 4 68 19 80 17 12 22 12 37 -2 9 -8 19 -30 22 -47 3 -18 22 -76 42 -130 l38
-99 31 6 c73 15 145 110 146 193 0 81 -66 188 -135 217 -58 25 -97 25 -158 3z
m171 -130 c42 -40 44 -91 6 -137 -15 -17 -30 -28 -34 -23 -16 18 -72 173 -67
187 8 22 58 8 95 -27z"/>
<path d="M1706 6237 c-32 -33 -45 -57 -59 -112 -9 -39 -17 -83 -17 -98 0 -40
28 -90 46 -83 9 3 22 6 30 6 11 0 14 16 14 65 0 53 5 73 25 105 25 39 68 61
85 44 5 -5 2 -49 -7 -102 -21 -124 -11 -163 49 -192 51 -25 55 -25 105 0 30
14 47 32 62 63 23 47 28 135 11 168 -9 16 -7 19 11 16 18 -2 25 6 37 42 14 41
13 45 -3 57 -9 7 -38 18 -64 23 -25 6 -71 18 -101 26 -30 8 -83 15 -119 15
-63 0 -65 -1 -105 -43z m268 -119 c23 -33 21 -103 -4 -128 -26 -26 -66 -26
-80 0 -10 19 -7 84 7 133 7 26 58 22 77 -5z"/>
<path d="M9128 6264 c-4 -6 -70 -55 -147 -109 -78 -54 -157 -112 -177 -129
l-36 -31 11 -57 c12 -55 13 -58 49 -63 20 -3 48 -8 62 -11 14 -3 63 -11 110
-19 47 -7 105 -18 130 -24 25 -6 60 -11 78 -11 37 0 42 21 17 69 -18 36 -28
40 -150 56 -55 7 -113 18 -130 25 l-30 12 40 34 c22 18 44 34 49 34 5 0 28 16
52 35 23 19 45 35 49 35 15 0 64 44 58 53 -3 5 -11 33 -17 61 -6 28 -15 46
-18 40z"/>
<path d="M1576 5844 c-10 -27 -7 -71 7 -81 16 -14 199 -93 213 -93 6 0 18 -8
28 -18 15 -18 14 -19 -36 -35 -29 -9 -95 -26 -145 -38 l-93 -22 0 -54 c0 -46
3 -55 23 -62 12 -5 71 -32 131 -60 74 -35 106 -55 99 -62 -6 -6 -37 -16 -69
-24 -33 -7 -90 -21 -128 -29 -37 -9 -72 -19 -77 -22 -5 -3 -9 -28 -9 -56 0
-57 -9 -54 100 -24 30 8 75 20 100 27 25 6 68 18 95 25 28 7 69 18 91 24 39
10 42 12 47 55 4 24 4 51 1 59 -3 8 -35 29 -72 46 -37 18 -74 37 -82 41 -8 5
-32 16 -53 25 -21 9 -35 20 -30 24 9 9 59 24 148 46 105 25 115 31 117 75 1
22 2 46 2 55 1 11 -39 34 -124 73 -303 140 -274 130 -284 105z"/>
<path d="M8963 5711 c-50 -28 -63 -41 -89 -93 -44 -87 -27 -237 34 -292 21
-18 21 -18 46 9 31 34 31 36 6 77 -26 43 -26 111 0 153 18 30 47 51 56 42 2
-2 11 -68 19 -148 9 -79 18 -150 20 -156 4 -12 22 -11 93 3 36 7 99 71 118
120 32 83 3 202 -62 254 -67 54 -176 68 -241 31z m172 -106 c21 -8 39 -25 45
-40 13 -34 13 -91 0 -116 -11 -20 -70 -55 -70 -42 0 5 -7 48 -14 96 -13 79
-13 117 0 117 3 0 20 -7 39 -15z"/>
<path d="M8877 5193 c-13 -12 -8 -93 6 -93 6 0 132 -2 278 -4 146 -2 271 -1
278 3 8 5 11 25 9 52 l-3 44 -281 3 c-154 1 -283 -1 -287 -5z"/>
<path d="M1883 5090 c-18 -7 -21 -15 -16 -47 8 -65 -8 -75 -125 -81 l-102 -5
0 39 c0 54 -11 66 -51 62 -33 -3 -34 -5 -39 -53 l-5 -50 -45 -5 -45 -5 0 -55
0 -55 50 -5 c46 -5 50 -7 53 -32 3 -26 7 -28 48 -28 43 0 44 1 44 34 l0 33 68
7 c162 15 183 21 213 54 26 29 29 40 29 98 0 96 -17 118 -77 94z"/>
<path d="M8987 4990 c-88 -28 -147 -120 -147 -230 0 -125 74 -210 191 -218 35
-3 77 1 100 8 45 15 119 89 119 119 0 11 5 23 10 26 6 3 10 37 10 74 0 98 -39
169 -112 207 -37 19 -131 27 -171 14z m121 -121 c37 -13 72 -64 72 -107 0 -38
-56 -101 -91 -103 -89 -6 -143 24 -152 84 -14 101 68 162 171 126z"/>
<path d="M1600 4741 c-23 -7 -25 -12 -25 -62 0 -50 -2 -54 -26 -57 -31 -4 -63
29 -65 66 -1 28 -32 52 -66 52 -26 0 -33 -59 -14 -118 24 -71 61 -103 127
-107 30 -2 57 -4 60 -4 4 -1 9 -10 12 -20 13 -49 87 -44 87 7 0 28 2 29 73 41
39 7 88 15 107 17 19 3 54 7 78 10 l43 5 -3 57 -3 57 -50 -3 c-27 -2 -63 -7
-80 -12 -16 -5 -66 -11 -109 -12 l-79 -3 -11 44 c-12 48 -18 53 -56 42z"/>
<path d="M8655 4540 c-3 -5 -9 -32 -12 -59 -6 -49 -5 -50 23 -56 76 -16 144
-41 144 -52 0 -7 -4 -13 -10 -13 -5 0 -21 -17 -35 -37 -21 -32 -25 -49 -25
-114 0 -68 3 -80 30 -117 35 -48 54 -60 129 -78 119 -28 215 19 254 126 19 51
22 106 7 115 -18 11 -11 45 9 45 20 0 41 44 41 86 0 20 -6 24 -47 29 -27 3
-58 10 -71 16 -33 13 -246 69 -325 85 -37 8 -76 18 -87 24 -12 6 -21 7 -25 0z
m354 -209 c66 -34 87 -90 57 -150 -40 -76 -147 -82 -210 -12 -13 15 -19 36
-19 68 0 42 4 50 38 80 45 38 78 42 134 14z"/>
<path d="M1775 4433 c-87 -45 -131 -125 -122 -221 11 -131 99 -222 213 -222
163 0 266 152 207 302 -41 104 -113 158 -209 158 -34 -1 -72 -8 -89 -17z m192
-139 c27 -34 31 -98 7 -132 -23 -33 -67 -52 -119 -52 -38 0 -52 5 -76 29 -52
52 -33 153 35 182 11 5 45 7 75 5 46 -2 58 -7 78 -32z"/>
<path d="M1968 3955 c-54 -37 -70 -95 -52 -195 15 -84 17 -150 6 -166 -11 -16
-41 -25 -66 -18 -35 9 -77 100 -79 173 l-1 61 -53 0 c-52 0 -53 0 -53 -30 0
-86 57 -225 111 -275 75 -67 154 -67 219 0 33 34 35 40 35 103 -1 37 -5 102
-9 144 -10 88 -2 108 44 108 55 0 99 -88 100 -197 l0 -73 49 0 c46 0 50 2 56
29 3 16 1 58 -5 93 -38 209 -182 325 -302 243z"/>
<path d="M8715 3959 c-95 -51 -137 -115 -143 -219 -5 -90 5 -106 54 -85 29 12
31 17 37 76 5 57 9 67 41 96 24 22 46 33 66 33 36 0 37 -5 5 -72 -54 -117 -95
-222 -88 -229 16 -13 77 -29 112 -28 55 1 99 21 142 63 109 110 86 289 -46
355 -68 33 -129 37 -180 10z m179 -142 c21 -16 31 -83 17 -119 -16 -42 -82
-77 -110 -59 -15 10 -12 23 24 106 7 17 18 42 24 58 12 30 19 33 45 14z"/>
<path d="M8451 3530 c-26 -46 -18 -71 26 -89 16 -6 37 -16 48 -23 123 -76 143
-100 131 -160 -14 -68 -13 -71 31 -96 l42 -23 11 39 c5 22 9 48 8 58 -4 45 1
55 26 48 20 -5 27 1 45 36 21 40 21 44 5 61 -9 10 -25 21 -36 25 -16 5 -152
80 -208 115 -36 22 -90 49 -98 49 -4 0 -18 -18 -31 -40z"/>
<path d="M2432 3257 c-44 -47 -13 -117 52 -117 68 0 101 79 50 119 -35 28 -75
27 -102 -2z"/>
<path d="M8181 3105 c-38 -33 -41 -72 -8 -103 48 -45 127 -11 127 54 0 21 -34
64 -51 64 -4 0 -14 2 -22 6 -8 3 -28 -7 -46 -21z"/>
<path d="M2750 2823 c-35 -32 -77 -68 -93 -80 -41 -31 -94 -30 -140 1 l-36 24
-23 -20 c-13 -11 -30 -23 -38 -28 -12 -7 -12 -12 5 -30 25 -27 68 -50 94 -50
18 0 19 -3 10 -27 -8 -23 -6 -30 15 -49 13 -13 26 -28 28 -35 6 -18 22 -6 154
112 66 59 132 118 148 131 l29 25 -38 41 c-20 23 -41 42 -45 42 -4 0 -35 -26
-70 -57z"/>
<path d="M7845 2711 c-54 -24 -132 -101 -155 -154 -44 -97 -17 -177 103 -305
45 -47 97 -103 116 -124 20 -22 44 -38 56 -38 26 0 65 39 65 66 -1 10 -37 57
-82 104 -135 142 -158 175 -158 226 0 80 72 135 156 119 34 -6 93 -61 252
-235 l41 -45 45 45 45 45 -135 138 c-87 89 -150 145 -177 157 -53 25 -120 25
-172 1z"/>
<path d="M2927 2673 c-4 -3 -7 -21 -7 -39 0 -29 4 -33 54 -53 55 -23 90 -59
102 -105 7 -29 -2 -76 -15 -76 -4 0 -44 33 -87 74 -109 102 -140 126 -157 126
-8 0 -27 -19 -43 -42 -22 -34 -29 -57 -31 -108 -3 -58 -1 -70 26 -111 16 -26
50 -61 76 -78 41 -28 53 -31 122 -31 87 0 123 16 173 80 28 36 30 43 30 127 0
83 -2 92 -30 130 -36 49 -83 85 -129 101 -38 13 -74 15 -84 5z m11 -255 c37
-35 68 -68 70 -75 4 -17 -41 -27 -86 -20 -60 10 -102 79 -81 134 5 13 13 23
19 23 6 0 41 -28 78 -62z"/>
<path d="M3294 2393 c-8 -10 -45 -63 -82 -118 -62 -94 -66 -104 -70 -165 -3
-62 -2 -67 30 -101 47 -52 96 -79 144 -79 38 0 41 -2 37 -23 -4 -19 4 -29 37
-51 23 -15 46 -24 50 -19 8 9 135 197 192 285 l38 57 -37 26 c-21 14 -45 25
-54 25 -9 0 -39 -34 -69 -77 -68 -101 -96 -131 -131 -138 -62 -14 -130 50
-116 107 4 13 36 67 72 121 36 54 65 103 65 108 0 9 -69 59 -82 59 -5 0 -15
-8 -24 -17z"/>
<path d="M7446 2380 l-47 -30 23 -31 c13 -17 28 -38 33 -48 6 -9 24 -34 40
-56 17 -22 48 -64 69 -94 21 -30 42 -59 47 -65 5 -6 30 -40 55 -74 26 -35 53
-66 60 -69 13 -5 93 45 94 58 0 6 -94 139 -169 239 -15 19 -53 72 -85 118 -33
45 -62 82 -66 82 -3 0 -27 -14 -54 -30z"/>
<path d="M7293 2369 c-29 -18 -33 -26 -33 -64 0 -24 5 -56 11 -72 5 -15 17
-61 25 -103 17 -91 35 -175 64 -295 11 -49 27 -125 35 -169 7 -43 16 -80 19
-83 9 -9 66 19 76 36 9 18 -13 144 -64 366 -9 39 -23 102 -32 140 -8 39 -21
97 -28 130 -8 33 -17 77 -21 98 -3 20 -9 37 -13 37 -4 0 -22 -10 -39 -21z"/>
<path d="M3835 2202 c-76 -36 -92 -61 -210 -317 -8 -16 -16 -37 -20 -45 -3 -8
-12 -26 -20 -39 -8 -15 -10 -32 -6 -45 10 -26 66 -44 91 -29 14 10 23 4 53
-31 50 -61 94 -79 176 -74 54 3 73 9 103 32 62 47 78 82 78 172 0 77 -1 80
-38 120 -49 55 -95 77 -159 78 -57 1 -59 3 -42 39 33 73 158 55 240 -34 l38
-41 30 23 c17 13 31 30 31 40 0 26 -86 98 -156 130 -86 39 -138 45 -189 21z
m58 -268 c84 -28 105 -118 43 -180 -40 -40 -81 -45 -131 -14 -86 53 -86 139
-1 191 37 23 32 23 89 3z"/>
<path d="M6835 2031 c-102 -49 -145 -108 -145 -202 0 -66 5 -83 70 -224 10
-22 32 -73 50 -112 18 -40 35 -73 37 -73 1 0 20 9 40 20 21 11 43 20 50 20 23
0 25 -5 -83 225 -44 96 -55 172 -29 211 21 32 98 68 130 60 40 -10 84 -56 111
-115 14 -31 29 -63 35 -71 5 -8 12 -22 15 -30 41 -106 63 -145 83 -148 22 -4
91 33 91 48 0 5 -20 50 -44 102 -24 51 -55 119 -69 150 -14 32 -37 73 -51 91
-61 80 -182 100 -291 48z"/>
<path d="M4224 1903 c-3 -10 -12 -34 -19 -53 -7 -19 -24 -66 -36 -105 -12 -38
-28 -83 -35 -100 -7 -16 -19 -49 -28 -73 l-15 -43 45 -20 c25 -10 51 -19 58
-19 7 0 37 76 71 178 32 97 62 181 67 187 14 16 9 35 -9 35 -10 0 -27 7 -37
15 -27 20 -55 19 -62 -2z"/>
<path d="M6550 1901 c-8 -5 -34 -12 -57 -16 -36 -6 -44 -11 -53 -38 -41 -122
-67 -192 -72 -192 -3 0 -42 30 -86 68 -86 72 -106 78 -185 56 -47 -13 -47 -14
82 -118 51 -42 105 -85 119 -97 l25 -20 -30 -85 c-17 -46 -41 -112 -54 -146
-12 -35 -21 -65 -18 -67 2 -3 26 0 52 6 54 11 79 40 97 113 14 52 38 105 48
105 5 0 44 -30 87 -66 57 -46 85 -64 100 -60 11 2 37 8 58 11 20 4 39 11 42
15 5 7 -115 113 -197 174 -21 16 -38 37 -38 47 0 17 24 84 90 254 27 68 25 76
-10 56z"/>
<path d="M4450 1822 c-24 -8 -64 -42 -77 -65 -36 -64 -3 -116 105 -169 91 -46
105 -58 96 -82 -14 -37 -99 -28 -167 18 l-36 25 -26 -35 c-14 -19 -23 -39 -20
-44 16 -25 164 -80 216 -80 81 0 149 61 149 133 0 49 -25 75 -121 121 -72 35
-84 45 -84 66 0 20 6 26 30 28 39 5 98 -13 148 -45 l41 -25 27 33 28 34 -22
18 c-47 39 -121 65 -197 69 -41 3 -82 2 -90 0z"/>
<path d="M4853 1729 c-38 -24 -41 -39 -14 -63 16 -14 30 -16 74 -11 34 4 69 3
91 -5 37 -12 86 -61 86 -86 0 -19 -74 -19 -155 0 -33 8 -85 16 -115 18 l-55 3
1 -72 c0 -65 3 -76 31 -110 49 -61 96 -83 181 -83 91 0 130 17 180 78 36 44
37 47 37 133 0 82 -2 89 -31 126 -44 56 -113 86 -204 90 -63 3 -80 0 -107 -18z
m132 -234 c87 -9 95 -13 84 -43 -12 -31 -70 -55 -116 -46 -45 9 -89 51 -85 82
3 19 8 23 25 19 12 -3 54 -9 92 -12z"/>
<path d="M5475 1711 c-76 -19 -151 -77 -188 -146 -17 -32 -21 -57 -21 -127 0
-85 1 -88 39 -144 74 -107 142 -130 363 -121 79 3 148 9 152 13 6 7 -12 518
-19 532 -3 5 -299 -1 -326 -7z m217 -141 c3 -25 7 -102 7 -172 l1 -128 -90 0
c-103 0 -141 12 -185 59 -28 31 -30 37 -30 116 0 75 2 86 25 110 48 51 87 65
180 62 l85 -2 7 -45z"/>
<path d="M4056 1429 c-29 -23 -33 -54 -10 -87 12 -17 25 -22 59 -22 34 0 47 5
59 22 23 33 20 53 -15 82 -37 31 -58 33 -93 5z"/>
</g>
</svg>
